<svg width="72" height="16" viewBox="0 0 72 16" fill="none" xmlns="http://www.w3.org/2000/svg">
<path d="M8.00016 11.3107L11.4201 13.3359L10.5125 9.51887L13.534 6.95062L9.55518 6.61398L8.00016 3.01953L6.44515 6.61398L2.46631 6.95062L5.48226 9.51887L4.58024 13.3359L8.00016 11.3107Z" fill="#FB8200"/>
<path d="M22.0002 11.3107L25.4201 13.3359L24.5125 9.51887L27.534 6.95062L23.5552 6.61398L22.0002 3.01953L20.4451 6.61398L16.4663 6.95062L19.4823 9.51887L18.5802 13.3359L22.0002 11.3107Z" fill="#FB8200"/>
<path d="M36.0002 11.3107L39.4201 13.3359L38.5125 9.51887L41.534 6.95062L37.5552 6.61398L36.0002 3.01953L34.4451 6.61398L30.4663 6.95062L33.4823 9.51887L32.5802 13.3359L36.0002 11.3107Z" fill="#FB8200"/>
<path d="M50.0002 11.3107L53.4201 13.3359L52.5125 9.51887L55.534 6.95062L51.5552 6.61398L50.0002 3.01953L48.4451 6.61398L44.4663 6.95062L47.4823 9.51887L46.5802 13.3359L50.0002 11.3107Z" fill="#FB8200"/>
<path d="M64.0002 10.2717V4.85436L64.9465 7.20188L67.3703 7.41741L65.533 9.10086L66.0809 11.594L64.0002 10.2717ZM69.534 6.68344L65.5552 6.32811L64.0002 2.46606L62.4451 6.32811L58.4663 6.68344L61.4823 9.43872L60.5802 13.5338L64.0002 11.361L67.4201 13.5338L66.5125 9.43872L69.534 6.68344Z" fill="#FB8200"/>
</svg>
